<?xml version="1.0" standalone="no"?>
<!DOCTYPE svg PUBLIC "-//W3C//DTD SVG 20010904//EN"
 "http://www.w3.org/TR/2001/REC-SVG-20010904/DTD/svg10.dtd">
<svg version="1.0" xmlns="http://www.w3.org/2000/svg"
 width="1500.000000pt" height="1500.000000pt" viewBox="0 0 1500.000000 1500.000000"
 preserveAspectRatio="xMidYMid meet">
<metadata>
Created by potrace 1.11, written by Peter Selinger 2001-2013
</metadata>
<g transform="translate(0.000000,1500.000000) scale(0.100000,-0.100000)"
fill="#000000" stroke="none">
<path d="M6710 14800 l0 -40 -85 0 -85 0 0 -40 0 -40 -45 0 c-42 0 -45 2 -46
28 -1 15 -1 33 0 40 1 9 -30 12 -129 12 l-130 0 0 -40 0 -40 -45 0 -45 0 0 40
0 40 -45 0 -45 0 0 -80 0 -80 -130 0 -130 0 0 -40 0 -40 -85 0 -85 0 0 -40 0
-40 -130 0 -130 0 0 -40 0 -40 -90 0 -90 0 0 -40 0 -40 -45 0 c-31 0 -45 -4
-44 -12 1 -7 1 -25 0 -40 -1 -26 -4 -28 -41 -28 l-40 0 0 -40 0 -40 -90 0 -90
0 0 -40 0 -40 -85 0 -85 0 0 -80 0 -80 -90 0 -90 0 0 -40 0 -40 -40 0 -40 0 0
-40 0 -40 -45 0 -45 0 0 -80 0 -80 -90 0 c-67 0 -90 -3 -89 -12 1 -7 1 -43 0
-80 l-1 -68 -40 0 -40 0 0 -40 0 -40 -45 0 -45 0 0 -40 0 -40 -45 0 -45 0 0
-80 0 -80 -85 0 -85 0 0 -80 0 -80 -45 0 -45 0 0 -80 0 -80 -45 0 -45 0 0 -80
0 -80 -40 0 -40 0 0 -120 0 -120 -50 0 -50 0 0 -40 0 -40 -46 0 -45 0 3 -122
3 -123 -47 3 -48 4 0 -161 0 -161 -40 0 -40 0 0 -205 0 -205 -45 0 -45 0 0
-40 0 -40 45 0 45 0 0 -40 0 -40 -45 0 -45 0 0 -40 0 -40 45 0 45 0 0 -40 0
-40 -45 0 -45 0 2 -602 3 -603 -47 3 -48 4 0 -42 0 -42 48 4 47 3 -3 -402 -2
-403 45 0 45 0 0 -40 0 -40 -46 0 -45 0 3 -82 3 -83 -47 3 -48 4 0 -202 0
-202 48 4 47 3 -3 -568 -2 -568 42 3 43 3 5 180 6 180 2 -142 2 -143 34 0 35
0 0 163 1 163 -34 -4 c-22 -3 -37 -10 -39 -21 -3 -9 -4 103 -4 249 1 146 3
228 4 183 l4 -83 34 0 35 0 0 120 0 120 45 0 45 0 0 81 0 81 40 -4 c23 -2 41
1 41 7 2 13 3 142 7 633 l2 402 50 0 50 0 0 80 0 80 -50 0 -50 0 0 120 0 120
50 0 50 0 0 600 0 600 40 0 40 0 0 245 0 245 45 0 45 0 0 160 0 160 45 0 45 0
0 80 0 80 43 0 43 0 -4 35 c-2 20 -1 74 3 120 l7 85 39 0 39 0 0 80 0 80 45 0
45 0 0 43 0 43 39 -4 39 -4 7 81 7 81 42 0 42 0 -4 39 -4 40 44 3 43 3 3 78 3
77 44 0 45 0 0 43 0 43 40 -4 40 -4 0 40 c0 41 0 41 43 44 l42 3 3 78 3 79 44
-4 45 -3 0 42 0 43 88 0 87 0 -1 37 -1 38 86 5 86 5 3 38 3 37 215 0 214 0 0
40 0 39 88 3 87 3 3 37 3 37 127 3 127 3 3 38 3 37 130 0 129 0 0 40 0 40 88
0 89 0 0 35 c0 19 2 37 4 40 3 2 61 6 130 7 l124 3 3 37 3 38 172 2 c188 3
172 -2 176 61 1 15 12 17 86 17 l85 0 0 -40 0 -40 45 0 45 0 0 40 0 40 130 0
130 0 0 -40 0 -40 45 0 45 0 0 40 0 40 485 0 485 0 0 -40 0 -40 131 0 131 0
-4 -39 c-2 -22 -1 -39 2 -39 3 0 62 0 133 -1 l127 -1 0 -40 0 -40 133 0 133 0
-1 -37 0 -38 82 -3 c79 -3 83 -4 89 -27 3 -14 4 -32 0 -40 -5 -13 14 -15 129
-15 l135 0 0 -40 0 -40 215 0 215 0 0 -80 0 -80 48 0 48 0 -1 -37 c0 -38 0
-38 43 -41 l43 -3 -3 -77 -3 -77 -40 -5 -40 -5 0 -75 0 -75 43 0 42 0 0 -82 0
-83 45 0 45 0 0 -40 0 -40 -45 0 -45 0 0 -39 c0 -40 0 -40 -42 -43 l-43 -3 0
-75 0 -75 43 0 42 0 0 -122 0 -122 -42 -3 c-42 -3 -43 -4 -43 -41 0 -37 0 -37
-42 -37 l-43 0 0 -41 0 -40 85 3 85 3 0 -82 0 -83 -130 0 -130 0 0 -40 0 -40
45 0 45 0 0 -41 0 -41 40 4 39 3 3 -40 c3 -40 3 -40 46 -40 l42 0 0 -42 0 -43
45 0 45 0 0 -40 0 -40 44 0 44 0 0 -117 c0 -65 0 -140 1 -167 l1 -48 40 4 40
4 0 -43 0 -43 45 0 45 0 0 -40 0 -39 88 -3 87 -3 -2 -38 -3 -39 45 4 45 3 0
-42 0 -43 45 0 45 0 0 -40 0 -40 45 0 c31 0 45 -4 44 -12 -1 -7 -1 -44 0 -81
l1 -69 43 4 42 3 -1 -43 -1 -42 43 0 43 0 3 -77 3 -78 39 -5 c33 -4 40 -9 41
-30 3 -42 -5 -50 -49 -50 l-42 0 4 40 4 40 -46 0 c-48 0 -51 3 -46 58 1 21 -2
22 -84 22 l-86 0 0 40 0 40 -220 0 -220 0 0 -40 0 -40 -45 0 -45 0 0 -40 0
-40 -169 0 -169 0 -7 -80 -7 -80 -129 0 -129 0 0 -40 0 -40 -85 0 -85 0 0 -40
0 -40 -90 0 -90 0 0 -40 0 -40 -130 0 -130 0 0 -40 0 -40 -130 0 -130 0 0 -40
0 -40 -88 0 -89 0 2 -27 c3 -45 -4 -53 -49 -53 l-42 0 4 -40 4 -40 -131 0
c-142 0 -135 -3 -133 58 1 20 -4 22 -45 22 l-46 0 6 -40 5 -40 -44 0 -44 0 0
-40 0 -40 -45 0 -45 0 0 -40 0 -40 -46 0 -46 0 4 -40 4 -40 -49 0 -48 0 5 -40
5 -40 -136 0 -135 0 4 -40 4 -40 -143 0 -143 0 3 38 2 37 -45 3 -45 3 4 79 3
80 -46 0 -46 0 0 40 0 40 -45 0 -45 0 0 40 0 40 -44 0 -43 0 1 38 1 37 -87 3
-88 3 0 39 0 40 -85 0 -85 0 0 40 0 40 -130 0 -130 0 0 40 0 40 -130 0 -130 0
0 40 0 40 -132 0 -133 0 0 37 0 38 -172 3 -173 2 0 40 0 40 -45 0 -45 0 0 40
0 40 -175 0 -175 0 0 40 0 40 -45 0 -45 0 0 40 0 40 -85 0 -85 0 0 40 0 40
-90 0 -90 0 0 40 0 40 -259 0 -260 0 -3 -37 c-3 -37 -4 -38 -45 -41 -43 -3
-43 -3 -43 -43 l0 -39 46 0 46 0 -4 -80 -3 -79 45 -3 c43 -3 44 -4 45 -38 0
-34 -1 -35 -43 -38 l-43 -3 3 -157 3 -157 43 -3 43 -3 -3 -81 -3 -81 -86 2
-87 2 5 -40 c5 -44 5 -44 -54 -41 -31 1 -32 0 -35 -42 l-3 -43 -42 3 -42 3 -3
-83 -3 -83 -43 3 -42 4 2 -199 3 -198 43 -3 c42 -3 42 -3 42 -43 l0 -40 83 3
82 3 0 38 0 37 49 0 48 0 -4 -40 -4 -40 88 0 88 0 0 -40 0 -40 45 0 45 0 0
-40 0 -40 46 0 45 0 -3 -121 -3 -120 45 3 45 2 3 -42 3 -42 215 0 214 0 0 -41
0 -40 43 3 c41 3 42 4 45 41 3 37 4 37 48 37 l44 0 0 41 0 40 43 -3 c42 -3 42
-3 39 -40 l-3 -38 91 0 90 0 0 40 0 40 44 0 c44 0 45 0 48 -37 3 -36 5 -38 41
-41 l37 -3 0 40 0 41 45 0 45 0 0 41 0 40 43 -3 c29 -2 42 -8 43 -18 4 -64
-14 -58 174 -59 169 -1 170 -1 175 22 4 13 5 27 4 33 -1 5 -1 30 0 57 l1 47
44 0 45 0 -5 -41 -5 -40 43 3 c42 3 43 4 46 41 l3 37 90 0 89 0 0 40 0 40 43
0 43 0 -1 -77 0 -78 34 -3 c20 -2 37 2 42 10 13 20 11 56 -3 61 -7 3 11 6 40
6 l52 1 0 40 0 39 88 3 87 3 3 38 c3 37 3 37 48 37 45 0 45 0 42 33 -1 17 -7
35 -13 39 -5 4 252 8 573 8 l582 0 0 -59 c0 -32 3 -86 6 -120 l7 -61 83 0 84
0 0 -80 0 -80 45 0 45 0 0 -160 0 -160 85 0 85 0 0 -40 0 -40 172 2 173 3 0
35 c0 34 -1 35 -42 38 l-43 3 0 80 0 79 45 0 45 0 0 40 0 40 45 0 45 0 0 40 0
40 85 0 85 0 0 -40 0 -40 133 0 133 0 -4 -40 -4 -40 91 0 91 0 0 -40 0 -40
130 0 130 0 0 40 0 40 85 0 85 0 0 -40 0 -40 178 0 178 0 -4 -40 -4 -40 44 0
44 0 2 39 3 40 -43 3 c-42 3 -43 4 -46 40 l-3 37 -127 3 -127 3 -3 38 c-3 36
-4 37 -43 37 -21 0 -40 3 -40 8 -1 4 -3 22 -5 40 l-4 32 90 0 90 0 0 40 0 40
45 0 45 0 0 40 0 40 40 0 40 0 0 -40 0 -40 45 0 45 0 0 -120 0 -120 45 0 45 0
0 -40 0 -40 85 0 c83 0 85 -1 85 -24 0 -52 7 -56 91 -56 l79 0 0 40 0 40 130
0 130 0 0 40 0 40 45 0 45 0 0 40 0 40 140 0 140 0 0 -40 0 -40 45 0 45 0 0
-80 0 -80 40 0 40 0 0 -120 0 -120 45 0 45 0 -2 -402 -3 -403 -42 -3 -43 -3 0
-74 c0 -49 4 -75 13 -78 6 -3 -12 -6 -40 -6 l-53 -1 0 -80 0 -80 -45 0 -45 0
0 -80 0 -80 -32 -1 c-32 -1 -61 1 -65 5 -1 1 -3 18 -5 39 l-2 37 -83 0 -83 0
0 -40 0 -40 85 0 85 0 0 -120 0 -120 -39 0 c-48 0 -51 -8 -51 -145 l0 -100
-85 3 -85 3 0 -40 0 -41 85 0 85 0 0 -40 0 -41 -87 3 c-86 3 -88 4 -89 28 -2
48 -3 50 -44 50 l-40 0 0 -80 0 -80 -45 0 -45 0 0 -40 0 -40 45 0 45 0 0 -40
0 -40 40 0 c40 0 43 -3 43 -45 0 -8 -1 -19 -2 -25 0 -5 -38 -10 -83 -12 -57
-2 -83 -7 -84 -15 -1 -7 -2 -78 -3 -158 l-1 -145 -87 0 -88 0 3 -80 4 -80 -46
0 -46 0 0 -120 0 -120 -45 0 -45 0 0 -40 0 -40 45 0 45 0 0 -40 0 -40 -45 0
-45 0 0 -40 0 -40 -46 0 c-43 0 -45 -1 -44 -27 4 -50 2 -53 -40 -53 l-40 0 0
-41 0 -40 -42 3 c-42 3 -43 4 -46 41 l-3 37 -85 0 -84 0 0 120 0 120 -90 0
-90 0 0 80 0 80 -40 0 -40 0 0 40 0 40 -45 0 -45 0 0 43 c0 43 1 43 30 39 47
-7 57 1 52 43 l-4 36 -67 -1 c-36 -1 -74 -1 -83 -1 -16 1 -18 14 -18 121 l0
120 -48 0 -48 0 4 40 4 40 44 0 44 0 0 40 0 40 -47 0 -48 0 3 80 4 80 -49 0
-48 0 3 80 4 80 -54 0 c-33 0 -48 4 -40 9 8 5 12 21 10 37 -3 27 -7 29 -48 32
l-45 3 3 39 4 40 -346 0 -346 0 0 -40 0 -40 -136 0 -136 0 4 -40 4 -40 -88 0
-88 0 0 -40 0 -40 -46 0 -46 0 4 -40 4 -40 -88 0 -88 0 0 -40 0 -40 -91 0 -91
0 4 -37 3 -38 -272 -3 -272 -2 2 37 2 38 -87 3 -88 3 0 39 0 40 -85 0 -85 0 0
40 0 40 -45 0 -45 0 0 40 0 40 -45 0 -45 0 0 40 0 40 -84 0 -85 0 -3 38 c-3
36 -4 37 -45 40 l-42 3 3 -40 3 -41 -48 0 -49 0 0 40 0 40 -300 0 -300 0 0
-80 0 -80 40 0 40 0 2 -42 c1 -24 3 -54 4 -68 1 -14 3 -30 3 -37 1 -8 28 -13
84 -15 l82 -3 -2 -37 -3 -38 45 0 45 0 0 -40 0 -40 45 0 45 0 0 -120 0 -120
-85 0 -85 0 0 40 0 40 -45 0 -45 0 0 -40 0 -40 -45 0 -45 0 0 -40 0 -40 -45 0
-45 0 0 -40 0 -40 -40 0 -40 0 0 40 0 40 -45 0 -45 0 0 -40 0 -40 -90 0 -90 0
0 -80 0 -80 -43 0 -43 0 4 -40 4 -40 -50 0 -49 0 7 40 7 40 -42 0 -42 0 -7
-61 c-3 -34 -6 -88 -6 -120 l0 -59 -130 0 -130 0 0 -40 0 -40 -46 0 -46 0 6
-40 5 -40 -89 0 -90 0 0 40 c0 40 0 40 39 40 36 0 40 3 46 30 4 16 4 34 0 40
-4 6 10 10 38 10 24 0 46 2 48 5 3 2 3 20 1 40 -4 34 -6 35 -46 35 l-41 0 0
77 0 78 -41 3 c-41 3 -42 4 -46 42 l-3 39 45 3 c52 3 57 14 45 105 l-6 53 -39
0 -38 0 -4 80 -3 80 48 0 47 0 0 -40 0 -40 40 0 40 0 0 200 0 200 -127 0 -128
0 0 -40 c0 -22 -3 -40 -7 -40 -5 0 -64 0 -133 0 l-125 0 0 40 0 40 -130 0
-129 0 -3 78 -3 77 -87 3 -88 3 0 40 0 40 -37 -3 c-36 -3 -38 -5 -41 -40 -3
-37 -3 -37 40 -40 42 -3 43 -4 45 -40 l1 -38 -88 0 -88 0 -4 80 -3 79 45 3
c44 3 45 4 45 38 0 34 -1 35 -44 38 l-43 3 4 -35 c5 -43 -1 -46 -97 -46 l-72
0 -7 40 c-6 39 -7 40 -46 40 -40 0 -40 0 -40 40 l0 40 -44 0 c-44 0 -44 0 -42
-32 2 -18 4 -36 5 -40 0 -5 19 -8 41 -8 l40 0 0 -40 0 -40 45 0 45 0 0 -40 0
-40 -45 0 -45 0 0 -39 c0 -40 0 -40 43 -43 41 -3 42 -4 45 -40 l3 -38 -48 0
-48 0 3 -280 3 -280 39 0 c42 0 43 -2 43 -62 0 -15 8 -18 43 -18 l44 0 0 -80
0 -80 -45 0 -45 0 3 -40 2 -40 43 0 42 0 0 -40 0 -40 45 0 45 0 0 -160 0 -160
85 0 85 0 0 -40 0 -40 45 0 45 0 0 -40 0 -40 -45 0 -45 0 0 -40 0 -40 45 0 45
0 0 -80 0 -80 -87 0 -88 0 0 -37 c0 -37 -1 -38 -42 -41 l-43 -3 0 80 0 81 -40
0 -40 0 0 40 0 40 -45 0 -45 0 0 120 0 120 -45 0 -45 0 0 -161 0 -161 48 4 47
3 -3 -162 -3 -163 46 0 45 0 0 -125 0 -125 40 0 40 0 0 -120 0 -120 45 0 45 0
0 -120 0 -120 45 0 45 0 0 -40 0 -40 40 0 40 0 0 -80 0 -80 45 0 45 0 0 -80 0
-80 45 0 45 0 0 -40 0 -40 45 0 45 0 0 -40 0 -40 40 0 40 0 0 -40 0 -40 45 0
45 0 0 -120 0 -120 45 0 45 0 0 -40 0 -40 40 0 c41 0 42 -1 42 -52 1 -26 3
-28 44 -28 l44 0 0 -80 0 -80 45 0 45 0 0 -80 0 -80 45 0 45 0 0 -80 0 -80 40
0 40 0 0 -40 0 -40 45 0 45 0 0 -40 0 -40 45 0 45 0 0 -80 0 -80 45 0 45 0 0
-40 0 -40 40 0 40 0 0 -40 0 -40 45 0 45 0 0 -40 0 -40 45 0 45 0 0 -40 0 -40
40 0 c38 0 40 -1 41 -32 1 -18 1 -36 0 -40 0 -5 40 -8 89 -8 l90 0 0 -40 0
-40 85 0 85 0 0 -80 0 -80 45 0 45 0 0 -40 0 -41 178 3 177 3 -3 -82 -3 -83
130 0 131 0 0 -40 0 -40 90 0 90 0 0 -40 0 -40 130 0 130 0 0 -40 0 -40 266 0
266 0 -3 42 -4 43 50 0 50 0 -4 -43 -3 -42 131 0 131 0 0 40 0 40 45 0 45 0 0
-40 0 -40 130 0 130 0 0 80 0 80 130 0 130 0 0 40 0 40 85 0 85 0 0 40 0 40
90 0 90 0 0 40 0 40 85 0 85 0 0 40 0 40 90 0 90 0 0 80 0 80 85 0 85 0 0 40
0 40 45 0 45 0 0 40 0 40 40 0 40 0 0 40 0 40 45 0 45 0 0 40 0 40 45 0 45 0
0 40 0 40 45 0 45 0 0 120 0 120 40 0 40 0 0 40 0 40 45 0 45 0 0 40 0 40 45
0 45 0 0 79 0 80 43 3 42 3 1 75 1 75 41 3 42 3 0 80 0 79 45 0 45 0 0 80 0
80 45 0 45 0 0 40 0 40 40 0 40 0 0 80 0 80 45 0 45 0 0 40 0 40 45 0 45 0 0
80 0 80 45 0 45 0 0 80 0 80 85 0 85 0 0 160 0 160 45 0 45 0 0 40 0 40 40 0
40 0 0 120 0 120 45 0 45 0 0 120 0 120 45 0 45 0 0 165 0 165 45 0 45 0 0
160 0 160 45 0 45 0 0 320 0 320 45 0 46 0 -3 203 -3 202 48 -3 48 -4 -3 164
-3 163 48 -3 48 -4 -3 204 -3 203 43 -4 43 -3 -3 324 -3 325 48 -5 47 -5 0
122 0 121 -40 0 c-23 0 -42 -6 -47 -14 -4 -8 -8 230 -8 528 l0 543 48 -5 47
-5 0 402 0 401 -45 0 -45 0 0 80 0 80 45 0 45 0 0 160 0 160 45 0 45 0 0 80 0
80 -45 0 -45 0 0 40 0 40 45 0 45 0 0 40 0 40 -45 0 -45 0 0 80 0 80 45 0 45
0 0 40 0 40 -45 0 -45 0 0 40 0 40 45 0 45 0 0 40 0 40 -45 0 -45 0 0 240 0
240 45 0 45 0 0 40 0 40 -45 0 -45 0 0 365 0 365 -45 0 -45 0 0 200 0 200 -40
0 -40 0 0 120 0 120 -45 0 -45 0 0 120 0 120 -45 0 -45 0 0 80 0 80 -45 0 -45
0 0 120 0 120 -45 0 -45 0 0 40 0 40 -45 0 -45 0 0 80 0 80 -45 0 -45 0 0 40
0 40 -45 0 -45 0 0 80 0 80 -40 0 -40 0 0 40 0 40 -45 0 -45 0 0 40 0 40 -45
0 -45 0 0 40 0 40 -40 0 -40 0 -1 68 c-1 37 -1 73 0 80 1 9 -22 12 -89 12
l-90 0 0 80 0 80 -45 0 -45 0 0 40 0 40 -40 0 -40 0 0 40 0 40 -45 0 -45 0 0
40 0 39 -87 3 -88 3 -1 35 c0 34 -2 35 -42 38 -42 3 -42 3 -42 43 l0 39 -45 0
-45 0 0 40 0 40 -85 0 -85 0 0 40 0 40 -45 0 -45 0 0 80 0 80 -85 0 -85 0 0
-40 0 -40 -45 0 -45 0 0 40 0 40 -90 0 -90 0 0 40 0 40 -85 0 -85 0 0 40 0 40
-130 0 -130 0 0 40 0 40 -90 0 -90 0 0 40 0 40 -260 0 -260 0 0 40 0 40 -790
0 -790 0 0 -40z m-1660 -5450 l0 -40 -48 0 -48 0 4 40 4 40 44 0 44 0 0 -40z
m-607 -67 c0 -13 -1 -30 -2 -38 -1 -11 -12 -15 -39 -15 -21 0 -41 2 -43 5 -3
2 -3 21 -1 40 4 35 5 36 45 33 36 -3 41 -6 40 -25z m522 -293 l7 -80 39 0 38
0 3 -77 3 -78 83 -3 82 -3 0 -39 0 -40 45 0 45 0 0 -83 0 -82 -42 3 c-42 4
-43 4 -43 40 0 36 -1 37 -42 40 l-43 3 0 -41 0 -41 -42 3 -43 3 -3 117 -3 117
-84 0 -85 0 0 -41 0 -40 40 4 40 4 0 -83 0 -83 -88 0 -88 0 4 40 4 40 -41 0
c-34 0 -41 4 -45 23 -10 50 -5 57 41 57 l43 0 0 40 0 40 -45 0 -45 0 0 41 0
41 -42 -4 -43 -3 -3 43 c-3 42 -3 42 -43 42 -39 0 -39 0 -39 40 l0 40 -45 0
-45 0 0 40 0 40 259 0 259 0 7 -80z m5505 40 l0 -40 45 0 45 0 0 -40 0 -40 40
0 40 0 0 -80 0 -79 -82 -3 -83 -3 0 -39 -1 -39 -87 2 -87 2 0 -40 0 -41 -130
0 -130 0 0 40 0 40 45 0 45 0 0 40 0 40 40 0 40 0 0 81 0 81 39 -4 39 -3 7 82
7 83 84 0 84 0 0 -40z m-4460 -159 l0 -120 -130 -3 -130 -3 0 43 0 42 45 0 45
0 0 80 0 80 85 0 85 0 0 -119z m5250 -81 l0 -40 -45 0 -45 0 0 40 0 40 45 0
45 0 0 -40z m697 -1907 c-2 -27 -3 -5 -3 47 0 52 1 74 3 48 2 -27 2 -69 0 -95z
m-617 -1058 l0 -45 -43 0 c-42 0 -44 1 -41 28 1 15 2 32 3 39 1 6 18 14 39 16
20 2 38 4 40 5 1 1 2 -18 2 -43z m-2619 -60 c1 -8 2 -22 2 -30 0 -32 -4 -35
-43 -35 l-40 0 0 40 0 40 40 0 c28 0 40 -4 41 -15z m-1564 -27 c-3 -8 -6 -5
-6 6 -1 11 2 17 5 13 3 -3 4 -12 1 -19z m-3239 -160 l3 -38 -45 0 -46 0 0 41
0 40 43 -3 c41 -3 42 -4 45 -40z m2702 2 l0 -40 -40 0 -40 0 0 40 0 40 40 0
40 0 0 -40z m440 0 l0 -40 -45 0 -45 0 0 -40 0 -40 -40 0 -40 0 0 40 0 40 40
0 40 0 0 40 0 40 45 0 45 0 0 -40z m-350 -80 l0 -40 -45 0 c-44 0 -45 0 -45
33 0 43 5 47 52 47 38 0 38 0 38 -40z m520 0 l0 -40 -85 0 -85 0 0 33 c0 19 3
37 7 40 3 4 42 7 85 7 l78 0 0 -40z m2281 -59 c1 -9 3 -26 4 -38 2 -21 -2 -23
-41 -23 l-44 0 0 43 0 43 40 -4 c28 -3 40 -9 41 -21z m-2191 -61 l0 -80 -85 0
-85 0 0 39 c0 40 0 40 43 43 30 2 41 7 39 17 -2 8 -1 25 3 38 4 19 12 23 45
23 l40 0 0 -80z m184 -112 c-1 -18 -2 -36 -3 -40 -1 -5 -21 -8 -46 -8 l-45 0
0 40 0 40 48 0 c48 0 48 0 46 -32z m2271 -8 c1 -34 2 -35 42 -38 40 -3 41 -4
45 -43 l4 -39 -43 0 -43 0 0 40 0 40 -45 0 -45 0 0 41 0 40 43 -3 c41 -3 42
-4 42 -38z m-1745 -160 l0 -40 -45 0 -45 0 0 40 0 40 45 0 45 0 0 -40z m-2280
-160 c0 -40 0 -40 -39 -40 -43 0 -59 21 -46 60 5 16 15 20 46 20 39 0 39 0 39
-40z m1308 -2 l3 -38 130 0 129 0 0 -80 0 -80 45 0 c25 0 44 3 44 8 -1 4 -1
22 0 40 l1 32 93 0 92 0 -3 80 -3 80 261 0 c201 0 260 -3 261 -12 1 -7 0 -25
-1 -40 -1 -27 1 -28 44 -28 l46 0 0 -40 0 -40 90 0 90 0 0 -39 c0 -40 0 -40
-42 -43 l-43 -3 0 -75 0 -75 83 -3 82 -3 0 41 0 40 44 0 c43 0 43 0 50 -41 7
-41 7 -41 46 -37 l40 4 0 -43 0 -43 -133 0 -133 0 4 -40 4 -40 -131 0 -131 0
0 40 0 40 -90 0 -90 0 0 40 0 40 -130 0 -130 0 0 -40 0 -40 -45 0 -45 0 0
-120 0 -120 -40 0 -40 0 0 40 0 40 -95 0 -95 0 0 40 0 40 -45 0 c-25 0 -44 3
-44 8 1 4 1 40 0 80 l-1 72 -40 0 -40 0 0 -40 0 -41 -87 3 -88 3 -3 38 c-3 37
-4 37 -48 37 l-44 0 0 -40 0 -40 45 0 45 0 0 -40 0 -40 -45 0 -45 0 0 -40 0
-40 -85 0 -85 0 0 40 0 40 45 0 45 0 0 40 0 40 -90 0 c-50 0 -89 3 -89 8 1 4
1 22 0 40 -1 31 -3 32 -41 32 l-40 0 0 40 0 40 85 0 85 0 0 80 0 80 45 0 45 0
0 41 0 40 85 -3 85 -3 0 43 0 43 43 -3 c41 -3 42 -4 45 -40z m-1488 -78 l0
-40 -40 0 -40 0 0 40 0 40 40 0 40 0 0 -40z m-348 -155 c2 -20 2 -38 -1 -40
-2 -3 -22 -5 -43 -5 -38 0 -38 0 -38 40 0 40 0 40 39 40 37 0 39 -2 43 -35z
m-172 -85 l0 -40 -43 0 c-41 0 -43 2 -45 31 -3 42 3 49 49 49 39 0 39 0 39
-40z m-170 -80 c0 -27 4 -40 13 -39 6 1 24 1 40 0 25 -1 27 -4 27 -41 l0 -40
-46 0 c-37 0 -45 -3 -40 -15 3 -8 3 -28 0 -43 -5 -25 -9 -27 -45 -24 -38 4
-39 5 -39 43 l0 39 -45 0 -45 0 0 40 0 40 46 0 46 0 -4 40 -4 40 48 0 48 0 0
-40z m4110 -40 l5 -75 35 0 c31 0 36 -3 40 -30 10 -52 5 -55 -86 -55 l-84 0 0
40 0 40 -131 0 -130 0 3 38 c3 36 4 37 46 40 42 3 42 3 42 43 l0 40 128 -3
127 -3 5 -75z m1480 -40 l0 -40 -40 0 -40 0 0 40 0 40 40 0 40 0 0 -40z
m-5680 -320 l0 -120 -45 0 -45 0 0 120 0 120 45 0 45 0 0 -120z m170 80 l0
-40 -40 0 c-39 0 -40 1 -40 33 0 19 3 37 7 40 3 4 21 7 40 7 32 0 33 -1 33
-40z m3240 0 l0 -40 -40 0 -40 0 0 40 0 40 40 0 40 0 0 -40z m-610 -120 l0
-80 -39 0 -39 0 -4 80 -3 80 43 0 42 0 0 -80z m615 -80 l7 -80 169 0 169 0 0
80 0 80 45 0 45 0 0 -80 0 -80 40 0 c42 0 44 -3 42 -57 -1 -22 2 -23 88 -23
l90 0 0 81 0 80 43 -3 42 -3 2 -70 c1 -38 2 -73 2 -77 1 -5 19 -8 41 -8 l40 0
0 -45 0 -45 45 0 45 0 0 -41 0 -40 -85 3 -85 3 0 -42 0 -43 -175 0 -175 0 0
-80 0 -80 -45 0 -45 0 0 40 0 41 -127 -3 -128 -3 -2 -40 c-1 -22 -2 -56 -2
-76 -1 -36 -3 -37 -41 -41 -23 -2 -40 1 -41 7 -1 5 -2 15 -4 20 -1 6 -3 20 -3
33 -2 22 -3 23 -129 20 l-128 -3 1 -37 1 -38 -83 0 c-46 0 -87 -1 -91 -2 -5
-2 -9 16 -11 40 -3 42 -3 42 -43 42 -39 0 -39 0 -39 -40 l0 -40 -40 0 c-22 0
-40 3 -41 8 -3 20 -7 73 -9 127 -1 33 -4 52 -7 43 -3 -13 -14 -18 -37 -18
l-33 0 -7 61 c-3 34 -6 99 -6 144 0 45 3 110 6 144 l7 61 128 0 129 0 0 -39
c0 -40 0 -40 -42 -43 -43 -3 -43 -3 -43 -43 0 -40 0 -40 43 -43 l42 -3 0 -160
0 -159 85 0 85 0 0 80 0 80 45 0 45 0 0 40 0 40 -45 0 -45 0 0 85 0 85 45 0
45 0 0 80 0 80 45 0 45 0 0 40 c0 40 0 40 39 40 l39 0 7 -80z m-1147 -120 l-4
-40 48 0 48 0 0 -125 0 -125 -45 0 -45 0 0 -40 0 -40 -45 0 -45 0 0 205 0 205
46 0 46 0 -4 -40z m-258 -83 c0 -24 -2 -46 -4 -48 -3 -3 -23 -3 -45 -1 l-41 4
0 44 0 44 45 0 45 0 0 -43z m-1050 -487 l0 -40 90 0 90 0 0 40 0 41 83 -3 82
-3 0 -38 0 -37 309 0 308 0 -4 -40 -4 -40 133 0 133 0 0 -40 0 -40 220 0 220
0 0 -40 0 -40 180 0 180 0 0 40 0 40 220 0 220 0 0 40 0 40 40 0 40 0 0 -40 0
-40 130 0 130 0 0 40 0 40 260 0 260 0 0 -200 0 -200 -130 0 -130 0 0 -40 0
-40 -85 0 -85 0 0 -40 0 -40 -45 0 -45 0 0 -40 0 -40 -45 0 -45 0 0 -40 0 -40
-85 0 -85 0 0 -40 0 -40 -130 0 -130 0 0 -40 0 -40 -220 0 -220 0 0 40 0 40
-180 0 -180 0 0 -40 0 -40 -40 0 -40 0 0 80 0 80 -130 0 c-71 0 -130 3 -131 8
-1 4 -2 21 -3 37 l-1 30 -262 3 -263 2 0 40 c0 40 0 40 -39 40 -41 0 -51 11
-51 56 l0 24 -130 0 -130 0 0 40 0 40 -45 0 -45 0 0 40 0 40 -85 0 -85 0 0 40
0 40 -45 0 -45 0 0 40 0 40 -85 0 -85 0 0 40 0 40 45 0 45 0 0 40 0 40 -45 0
-45 0 0 40 0 40 85 0 85 0 0 33 c0 43 5 47 52 47 38 0 38 0 38 -40z m1310 0
l0 -40 -45 0 -45 0 0 40 0 40 45 0 45 0 0 -40z m97 -102 c-3 -8 -6 -5 -6 6 -1
11 2 17 5 13 3 -3 4 -12 1 -19z"/>
<path d="M7770 4700 l0 -40 130 0 130 0 0 40 0 40 -130 0 -130 0 0 -40z"/>
<path d="M4441 12520 l-2 -80 90 0 91 0 0 -40 0 -40 -90 0 c-49 0 -89 -3 -89
-7 1 -5 1 -23 0 -40 -1 -32 -3 -33 -41 -33 -42 0 -44 -3 -42 -57 1 -21 -4 -23
-43 -23 l-45 0 0 -120 0 -120 -45 0 -45 0 0 -80 0 -80 45 0 45 0 0 -40 0 -40
40 0 c38 0 40 2 40 30 0 17 -1 33 -2 38 -2 4 17 9 42 12 l45 5 3 78 3 77 89 0
90 0 0 -120 0 -120 40 0 c40 0 40 0 40 39 0 40 0 40 43 43 41 3 42 4 45 41 l3
37 -45 0 -46 0 0 80 0 80 -44 0 -45 0 2 40 2 40 43 0 42 0 0 80 0 79 88 3 87
3 3 78 3 77 -48 0 -49 0 4 40 4 40 -46 0 -46 0 0 40 0 40 -129 0 -128 0 -2
-80z"/>
<path d="M4790 12080 l0 -40 45 0 45 0 0 -40 c0 -40 0 -40 39 -40 l39 0 4 58
c6 105 9 102 -88 102 l-84 0 0 -40z"/>
<path d="M4438 11760 l-4 -41 46 3 c44 3 45 4 48 41 l3 37 -44 0 -45 0 -4 -40z"/>
<path d="M9777 11633 c-2 -5 -3 -41 -3 -80 l1 -73 -42 0 -43 0 0 -40 0 -40 45
0 c44 0 45 0 41 -32 -6 -49 2 -58 48 -58 l42 0 -4 -41 -4 -40 43 3 c42 3 44 4
47 38 3 35 2 36 -34 38 -50 4 -54 7 -54 52 0 39 0 39 43 42 l42 3 3 78 3 77
-46 0 -45 0 0 40 c0 40 0 40 -39 40 -22 0 -42 -3 -44 -7z"/>
<path d="M4008 9854 c-2 -9 -1 -45 0 -81 l4 -64 36 3 37 3 3 78 3 77 -40 0
c-28 0 -40 -5 -43 -16z"/>
<path d="M6535 8493 c2 -10 4 -28 4 -41 1 -21 5 -23 39 -20 35 3 37 5 40 41
l3 37 -45 0 c-37 0 -44 -3 -41 -17z"/>
<path d="M6010 8231 l0 -41 46 0 45 0 -3 38 c-3 36 -4 37 -45 40 l-43 3 0 -40z"/>
<path d="M8990 8151 l0 -41 44 0 43 0 -1 38 c-1 36 -2 37 -43 40 l-43 3 0 -40z"/>
<path d="M9163 8113 c3 -43 6 -79 6 -80 1 -2 37 -3 81 -3 l80 0 0 40 0 40 -40
0 c-40 0 -40 0 -40 38 l0 38 -46 3 -46 2 5 -78z"/>
<path d="M9342 8153 c3 -36 5 -38 41 -41 l37 -3 0 40 0 41 -41 0 -40 0 3 -37z"/>
<path d="M10040 8151 l0 -41 41 0 40 0 -3 38 c-3 35 -5 37 -40 40 l-38 3 0
-40z"/>
<path d="M3040 6980 l0 -160 40 0 40 0 0 -160 0 -160 45 0 45 0 0 -241 0 -240
43 3 42 3 3 238 2 237 -45 0 -45 0 0 160 0 160 -45 0 -45 0 0 160 0 160 -40 0
-40 0 0 -160z"/>
<path d="M3486 6638 c-10 -51 -5 -58 41 -58 l44 0 -3 38 c-3 35 -5 37 -40 40
-32 3 -38 0 -42 -20z"/>
<path d="M3750 6461 l0 -41 41 0 40 0 -3 38 c-3 35 -5 37 -40 40 l-38 3 0 -40z"/>
<path d="M3831 6260 l2 -80 44 0 44 0 -5 63 c-3 34 -5 70 -5 80 -1 13 -10 17
-42 17 l-40 0 2 -80z"/>
<path d="M3660 6180 l0 -80 40 2 40 1 0 79 0 78 -40 0 -40 0 0 -80z"/>
<path d="M3300 5819 l0 -200 48 3 47 3 3 198 2 197 -50 0 -50 0 0 -201z"/>
<path d="M3400 5339 l0 -280 43 3 42 3 3 278 2 277 -45 0 -45 0 0 -281z"/>
<path d="M4970 5300 l0 -80 40 0 40 0 0 80 0 80 -40 0 -40 0 0 -80z"/>
<path d="M5056 5198 c-10 -51 -5 -58 41 -58 l44 0 -3 38 c-3 35 -5 37 -40 40
-32 3 -38 0 -42 -20z"/>
<path d="M3480 4780 l0 -280 45 0 45 0 0 280 0 280 -45 0 -45 0 0 -280z"/>
</g>
</svg>
